<svg width="2514" height="1928" viewBox="0 0 2514 1928" fill="none" xmlns="http://www.w3.org/2000/svg">
<g clip-path="url(#clip0_34_287)">
<path d="M696.58 541.28C697.55 550.91 690.67 558.47 681.2 558.18C671.72 557.88 663.23 549.82 662.25 540.16C661.27 530.5 668.19 522.94 677.68 523.26C687.16 523.58 695.61 531.65 696.58 541.28Z" fill="url(#paint0_linear_34_287)"/>
<path d="M1127.48 1602.29C1127.48 1637.96 1102.5 1670.59 1065.49 1678.43L782.93 1738.39L768.01 1670.4L750.81 1591.99L1031.42 1526.3C1070.93 1517.08 1111.28 1539.72 1123.69 1578.34C1123.8 1578.69 1124.37 1579.03 1124.37 1579.38V1579.42C1124.37 1587.03 1127.49 1594.72 1127.49 1602.29H1127.48Z" fill="url(#paint1_linear_34_287)"/>
<path d="M1101.56 1602.29C1105.12 1587.2 1095.78 1572.08 1080.69 1568.52C1065.6 1564.96 1050.48 1574.3 1046.92 1589.39C1043.36 1604.48 1052.7 1619.6 1067.79 1623.16C1082.88 1626.72 1098 1617.38 1101.56 1602.29Z" fill="url(#paint2_linear_34_287)"/>
<path style="mix-blend-mode:multiply" opacity="0.4" d="M1127.1 1602.29C1127.1 1637.96 1102.31 1670.59 1065.3 1678.43L782.83 1738.39L767.95 1670.4C821.07 1661.83 951.33 1641.11 1025.7 1631.62C1114.76 1620.24 1122.91 1583.92 1123.6 1579.42C1125.98 1587.03 1127.1 1594.72 1127.1 1602.29Z" fill="url(#paint3_linear_34_287)"/>
<path d="M804.64 1602.44L705.67 1714.98L677.38 1690.8L486.58 1527.72C456.52 1502 450.6 1458 472.32 1425.33C472.9 1424.48 473.47 1423.64 474.05 1422.83C489.39 1401.61 513.26 1390.54 537.32 1390.54C555.65 1390.54 574.18 1397 589.09 1410.3L804.64 1602.44Z" fill="#F4F7FA"/>
<g style="mix-blend-mode:multiply" opacity="0.4">
<path d="M729.65 1651.64L677.38 1690.81L486.58 1527.73C456.52 1502.01 450.6 1458.01 472.32 1425.34L729.65 1651.65V1651.64Z" fill="#F4F7FA"/>
</g>
<path d="M828.405 1722.51C869.16 1681.76 869.16 1615.68 828.405 1574.92C787.65 1534.17 721.573 1534.17 680.818 1574.92C640.063 1615.68 640.063 1681.76 680.818 1722.51C721.573 1763.27 787.65 1763.27 828.405 1722.51Z" fill="url(#paint4_linear_34_287)"/>
<path d="M415.33 1780.31C415.33 1780.31 354.38 1815.87 372.57 1857.75C383.5 1882.93 410.18 1891.76 429.71 1894.8C441.99 1896.71 453.32 1887.82 454.58 1875.46L458.1 1840.83L415.34 1780.31H415.33Z" fill="url(#paint5_linear_34_287)"/>
<path d="M1147.01 1429.25C1143.33 1463.39 1168.1 1561.78 1202.24 1565.46L1483.53 1528.03L1496.85 1404.38L1215.49 1374.08C1181.35 1370.4 1150.69 1395.1 1147.01 1429.24V1429.25Z" fill="url(#paint6_linear_34_287)"/>
<path d="M1689.15 1193.94C1662.46 1172.33 1623.31 1176.45 1601.7 1203.14L1423.63 1423.07L1520.28 1501.32L1698.35 1281.39C1719.96 1254.7 1715.84 1215.55 1689.15 1193.94Z" fill="url(#paint7_linear_34_287)"/>
<path d="M1489.58 1551.69C1538.04 1540.07 1567.91 1491.37 1556.29 1442.91C1544.67 1394.45 1495.97 1364.58 1447.51 1376.2C1399.05 1387.82 1369.18 1436.52 1380.8 1484.98C1392.42 1533.44 1441.12 1563.31 1489.58 1551.69Z" fill="url(#paint8_linear_34_287)"/>
<path d="M1341.71 1170.07C1418.74 1170.07 1481.18 1082.32 1481.18 974.08C1481.18 865.838 1418.74 778.09 1341.71 778.09C1264.68 778.09 1202.24 865.838 1202.24 974.08C1202.24 1082.32 1264.68 1170.07 1341.71 1170.07Z" fill="url(#paint9_linear_34_287)"/>
<path d="M915.45 499.16H652.96C383.81 499.16 165.62 717.35 165.62 986.5C165.62 1130.12 282.05 1246.55 425.67 1246.55H1142.74C1286.36 1246.55 1402.79 1130.12 1402.79 986.5C1402.79 717.35 1184.6 499.16 915.45 499.16Z" fill="url(#paint10_linear_34_287)"/>
<path d="M896.15 1927.36H678.58C455.5 1927.36 274.65 1746.51 274.65 1523.43C274.65 1404.39 371.15 1307.89 490.19 1307.89H1084.54C1203.58 1307.89 1300.08 1404.39 1300.08 1523.43C1300.08 1746.52 1119.23 1927.36 896.15 1927.36Z" fill="url(#paint11_linear_34_287)"/>
<path d="M1153.72 1141.44H654.76C587.14 1141.44 531.67 1089.61 531.67 1025.67V927.63C531.67 863.69 587.15 813.63 654.76 815.79L1153.72 831.71C1214.11 833.64 1262.52 883.34 1262.52 942.76V1033.87C1262.52 1093.28 1214.11 1141.45 1153.72 1141.45V1141.44Z" fill="url(#paint12_linear_34_287)"/>
<path d="M814.62 994.94C814.62 997.18 814.52 1001.02 814.31 1001.02H650.87C650.42 997.6 650.18 994.98 650.18 991.61C650.18 948.24 687.46 914.08 733.07 915.36C778.27 916.63 814.62 952.27 814.62 994.95V994.94Z" fill="white"/>
<path d="M1151.83 1001.02H998.4C998.4 1001.02 998.33 999.66 998.33 998.69C998.33 956.76 1033.1 923.5 1075.68 924.67C1117.81 925.87 1151.69 959.96 1151.83 1001.02Z" fill="white"/>
<g style="mix-blend-mode:soft-light" opacity="0.3">
<path d="M965.28 1178.2C891.07 1091.01 924.05 1021.28 827.03 903.13C693.54 740.55 537.82 758.95 502.15 648.69C492.27 618.14 491.13 576.2 517.64 518.23C314.33 576.87 165.62 764.32 165.62 986.52C165.62 1130.14 282.05 1246.57 425.67 1246.57H1050.59C1013.16 1226.17 985.8 1202.33 965.28 1178.21V1178.2Z" fill="white"/>
</g>
<path d="M235.75 1168.7C312.777 1168.7 375.22 1080.95 375.22 972.71C375.22 864.467 312.777 776.72 235.75 776.72C158.723 776.72 96.2798 864.467 96.2798 972.71C96.2798 1080.95 158.723 1168.7 235.75 1168.7Z" fill="url(#paint13_linear_34_287)"/>
<path d="M125.43 1058.41C159.114 1058.41 186.42 1020.04 186.42 972.71C186.42 925.379 159.114 887.01 125.43 887.01C91.7461 887.01 64.4399 925.379 64.4399 972.71C64.4399 1020.04 91.7461 1058.41 125.43 1058.41Z" fill="url(#paint14_linear_34_287)"/>
<path style="mix-blend-mode:multiply" opacity="0.4" d="M949.74 1704.99C919.89 1564.81 589.72 1568.19 580.74 1476.56C573.82 1405.92 763.38 1335.99 787.21 1327.2C807.58 1319.68 827.8 1313.32 847.82 1307.88H490.2C371.16 1307.88 274.66 1404.38 274.66 1523.42C274.66 1746.51 455.5 1927.35 678.59 1927.35H896.16C917.06 1927.35 937.6 1925.76 957.65 1922.7C938.72 1899.23 926.37 1873.57 923.39 1845.55C916.77 1783.45 961.31 1759.3 949.75 1704.98L949.74 1704.99Z" fill="url(#paint15_linear_34_287)"/>
<path d="M792.73 1361.49C982.501 1361.49 1136.34 1342.87 1136.34 1319.89C1136.34 1296.91 982.501 1278.29 792.73 1278.29C602.96 1278.29 449.12 1296.91 449.12 1319.89C449.12 1342.87 602.96 1361.49 792.73 1361.49Z" fill="url(#paint16_linear_34_287)"/>
<path d="M106.24 1534.07L319 1404.41C348.96 1386.15 387.91 1393.94 408.54 1422.31C432.03 1454.6 422.44 1500.12 387.92 1520.19L172.09 1645.65L106.24 1534.06V1534.07Z" fill="url(#paint17_linear_34_287)"/>
<path d="M526.34 1701.3L535.4 1755.02C538.15 1771.35 524.73 1785.73 508.23 1784.38C473.28 1781.52 420.32 1785.3 399.54 1829.37C394.08 1840.96 392.96 1854.14 396.02 1866.59L401.01 1886.84C401.01 1886.84 303.47 1854.7 349.57 1744.21C385.77 1657.44 472.57 1671.23 508.17 1681.16C517.63 1683.8 524.71 1691.63 526.35 1701.31L526.34 1701.3Z" fill="url(#paint18_linear_34_287)"/>
<path d="M149.85 1566.41L361.97 1697.12C391.84 1715.52 402.58 1753.77 386.67 1785.03C368.56 1820.62 323.65 1832.74 290.1 1811.09L80.3198 1675.75L149.85 1566.41Z" fill="url(#paint19_linear_34_287)"/>
<path d="M191.409 1674.15C226.646 1638.91 226.646 1581.78 191.409 1546.54C156.172 1511.31 99.0417 1511.31 63.8047 1546.54C28.5677 1581.78 28.5677 1638.91 63.8047 1674.15C99.0417 1709.38 156.172 1709.38 191.409 1674.15Z" fill="url(#paint20_linear_34_287)"/>
<path d="M1668.36 1089.31L1607.48 1045.49C1607.48 1045.49 1586.9 1108.44 1593.71 1125.49C1600.53 1142.53 1665.29 1200.48 1665.29 1200.48C1665.29 1200.48 1659.95 1151.55 1675.26 1113.51C1678.77 1104.79 1675.99 1094.81 1668.36 1089.31Z" fill="url(#paint21_linear_34_287)"/>
<path d="M1607.48 1045.49C1613.08 1045.49 1617.07 1050.94 1615.34 1056.26C1606.19 1084.31 1589.47 1158.58 1661.89 1174.91C1729.39 1190.14 1757.73 1152.68 1781.31 1094.85C1784.74 1086.44 1794.56 1082.66 1802.76 1086.57L1855.37 1111.61C1864.15 1115.79 1867.17 1126.85 1861.65 1134.85C1836.99 1170.58 1767.76 1252.49 1670.41 1219.22C1551.53 1178.59 1589.44 1074.26 1599.94 1050.4C1601.26 1047.4 1604.21 1045.49 1607.49 1045.49H1607.48Z" fill="url(#paint22_linear_34_287)"/>
<path d="M2454.71 191.218C2454.71 300.728 2353.96 386.548 2233.94 383.048C2118.4 379.668 2027.84 294.158 2027.84 191.928C2027.84 89.6983 2118.4 3.8783 2233.94 0.128302C2353.96 -3.7717 2454.71 81.7183 2454.71 191.228V191.218Z" fill="url(#paint23_linear_34_287)"/>
<path d="M2220.14 78.6983L2187.81 138.178L2122.58 146.008C2113.17 147.138 2108.72 158.868 2115.04 165.908L2159.09 214.908L2144.07 282.348C2141.86 292.268 2151.48 300.478 2160.37 296.208L2221.75 266.758L2281.32 302.908C2290.16 308.278 2301.05 300.998 2299.7 290.608L2290.57 220.288L2342.17 173.288C2349.72 166.408 2346.07 153.928 2336.04 152.178L2268.3 140.358L2241.15 79.0383C2237.25 70.2183 2224.84 70.0383 2220.14 78.6883V78.6983Z" fill="white"/>
<g style="mix-blend-mode:multiply" opacity="0.2">
<path d="M2286.14 335.398C2260.1 278.058 2286.43 225.078 2251.26 188.308C2215.94 151.368 2170.64 185.898 2122.62 156.338C2104.26 145.038 2083.97 123.408 2068.97 78.7983C2043.11 110.548 2027.84 149.708 2027.84 191.928C2027.84 294.158 2118.4 379.678 2233.94 383.048C2261.03 383.838 2287.17 380.058 2311.42 372.448C2299.44 359.958 2291.53 347.278 2286.13 335.398H2286.14Z" fill="url(#paint24_linear_34_287)"/>
</g>
<path d="M2088.38 593.959C2088.38 696.969 1988.74 776.489 1869.4 774.989C1866.64 774.959 1863.85 774.869 1861.06 774.759C1858.53 774.649 1856 774.499 1853.5 774.299C1850.94 774.129 1848.38 773.899 1845.85 773.639C1845.33 773.579 1844.82 773.549 1844.3 773.469C1842.66 773.299 1841.05 773.119 1839.41 772.899C1837.8 772.699 1836.22 772.499 1834.61 772.239C1832.31 771.919 1830.01 771.549 1827.74 771.149C1826.36 770.889 1825.01 770.659 1823.66 770.399C1810 767.749 1796.84 764.069 1784.33 759.419C1780.48 757.979 1776.71 756.489 1773 754.879C1746.87 743.639 1723.84 728.169 1705.15 709.599C1672.52 677.289 1653 635.659 1653 590.949C1653 494.499 1743.93 413.539 1861.06 409.999C1870.17 409.709 1879.17 409.909 1888.06 410.569C1983.29 417.449 2062.68 475.829 2083.19 554.009C2083.19 554.019 2083.19 554.029 2083.19 554.039C2083.71 556.009 2084.19 557.979 2084.63 559.969C2084.77 560.609 2084.9 561.259 2085.04 561.899C2085.37 563.479 2085.7 565.069 2085.98 566.659C2086.4 569.009 2086.77 571.359 2087.08 573.739C2087.05 573.769 2087.08 573.799 2087.08 573.859C2087.2 574.749 2087.31 575.669 2087.4 576.559C2087.54 577.679 2087.66 578.799 2087.75 579.919C2087.87 581.159 2087.98 582.419 2088.04 583.659C2088.07 584.029 2088.1 584.439 2088.13 584.809C2088.22 586.249 2088.27 587.679 2088.3 589.119C2088.36 590.729 2088.39 592.339 2088.39 593.949L2088.38 593.959Z" fill="url(#paint25_linear_34_287)"/>
<path d="M2088.38 593.959C2088.38 696.969 1988.74 776.489 1869.4 774.989C1866.64 774.959 1863.85 774.869 1861.06 774.759C1858.53 774.649 1856 774.499 1853.5 774.299C1850.94 774.129 1848.38 773.899 1845.85 773.639C1845.33 773.579 1844.82 773.549 1844.3 773.469C1842.66 773.299 1841.05 773.119 1839.41 772.899C1837.8 772.699 1836.22 772.499 1834.61 772.239C1832.31 771.919 1830.01 771.549 1827.74 771.149C1826.36 770.889 1825.01 770.659 1823.66 770.399C1810 767.749 1796.84 764.069 1784.33 759.419C1780.48 757.979 1776.71 756.489 1773 754.879C1746.87 743.639 1723.84 728.169 1705.15 709.599C1672.52 677.289 1653 635.659 1653 590.949C1653 494.499 1743.93 413.539 1861.06 409.999C1870.17 409.709 1879.17 409.909 1888.06 410.569C1983.29 417.449 2062.68 475.829 2083.19 554.009C2083.19 554.019 2083.19 554.029 2083.19 554.039C2083.71 556.009 2084.19 557.979 2084.63 559.969C2084.77 560.609 2084.9 561.259 2085.04 561.899C2085.37 563.479 2085.7 565.069 2085.98 566.659C2086.4 569.009 2086.77 571.359 2087.08 573.739C2087.05 573.769 2087.08 573.799 2087.08 573.859C2087.2 574.749 2087.31 575.669 2087.4 576.559C2087.54 577.679 2087.66 578.799 2087.75 579.919C2087.87 581.159 2087.98 582.419 2088.04 583.659C2088.07 584.029 2088.1 584.439 2088.13 584.809C2088.22 586.249 2088.27 587.679 2088.3 589.119C2088.36 590.729 2088.39 592.339 2088.39 593.949L2088.38 593.959Z" fill="url(#paint26_linear_34_287)"/>
<path d="M1741.75 543.619C1750.55 518.509 1772.55 500.489 1798.54 500.179C1832.86 499.769 1861.04 530.329 1861.04 568.439C1861.04 530.329 1889.55 499.079 1925.18 498.659C1952.85 498.329 1976.75 516.639 1986.44 542.869C2023.58 637.539 1861.05 720.609 1861.05 720.609C1861.05 720.609 1708.61 632.629 1741.75 543.619Z" fill="white"/>
<g style="mix-blend-mode:multiply" opacity="0.3">
<path d="M1808.86 726.499C1834.65 673.819 1808.58 623.389 1843.51 589.179C1879.52 553.909 1927.11 587.179 1979.36 557.999C1999.86 546.549 2022.85 524.499 2040.07 478.929C2070.26 510.459 2088.37 550.419 2088.37 593.949C2088.37 699.349 1984.04 780.189 1861.05 774.759C1833.72 773.549 1807.85 768.169 1784.28 759.459C1795.87 748.629 1803.58 737.289 1808.86 726.499Z" fill="url(#paint27_linear_34_287)"/>
</g>
<path d="M2512.87 889.478C2512.87 972.388 2432.67 1036.39 2336.62 1035.19C2334.4 1035.17 2332.15 1035.1 2329.91 1035C2327.87 1034.91 2325.84 1034.79 2323.82 1034.63C2321.76 1034.49 2319.7 1034.31 2317.66 1034.1C2317.24 1034.05 2316.83 1034.03 2316.41 1033.96C2315.09 1033.82 2313.8 1033.68 2312.48 1033.5C2311.18 1033.34 2309.91 1033.18 2308.62 1032.97C2306.77 1032.72 2304.92 1032.41 2303.09 1032.09C2301.98 1031.88 2300.89 1031.7 2299.8 1031.49C2288.81 1029.36 2278.21 1026.4 2268.15 1022.65C2265.05 1021.49 2262.02 1020.29 2259.03 1018.99C2238 1009.94 2219.46 997.488 2204.42 982.548C2178.16 956.538 2162.45 923.038 2162.45 887.048C2162.45 809.418 2235.64 744.258 2329.91 741.408C2337.24 741.178 2344.49 741.338 2351.64 741.868C2428.29 747.408 2492.18 794.398 2508.69 857.318V857.338C2509.1 858.918 2509.49 860.508 2509.85 862.118C2509.97 862.638 2510.07 863.158 2510.18 863.668C2510.45 864.938 2510.71 866.218 2510.94 867.498C2511.28 869.388 2511.58 871.288 2511.83 873.198C2511.81 873.218 2511.83 873.248 2511.83 873.288C2511.92 874.008 2512.02 874.748 2512.08 875.468C2512.2 876.368 2512.29 877.268 2512.36 878.178C2512.45 879.168 2512.55 880.188 2512.59 881.188C2512.61 881.488 2512.64 881.808 2512.66 882.118C2512.73 883.278 2512.78 884.428 2512.8 885.588C2512.85 886.888 2512.87 888.178 2512.87 889.478Z" fill="url(#paint28_linear_34_287)"/>
<path d="M2512.87 889.478C2512.87 972.388 2432.67 1036.39 2336.62 1035.19C2334.4 1035.17 2332.15 1035.1 2329.91 1035C2327.87 1034.91 2325.84 1034.79 2323.82 1034.63C2321.76 1034.49 2319.7 1034.31 2317.66 1034.1C2317.24 1034.05 2316.83 1034.03 2316.41 1033.96C2315.09 1033.82 2313.8 1033.68 2312.48 1033.5C2311.18 1033.34 2309.91 1033.18 2308.62 1032.97C2306.77 1032.72 2304.92 1032.41 2303.09 1032.09C2301.98 1031.88 2300.89 1031.7 2299.8 1031.49C2288.81 1029.36 2278.21 1026.4 2268.15 1022.65C2265.05 1021.49 2262.02 1020.29 2259.03 1018.99C2238 1009.94 2219.46 997.488 2204.42 982.548C2178.16 956.538 2162.45 923.038 2162.45 887.048C2162.45 809.418 2235.64 744.258 2329.91 741.408C2337.24 741.178 2344.49 741.338 2351.64 741.868C2428.29 747.408 2492.18 794.398 2508.69 857.318V857.338C2509.1 858.918 2509.49 860.508 2509.85 862.118C2509.97 862.638 2510.07 863.158 2510.18 863.668C2510.45 864.938 2510.71 866.218 2510.94 867.498C2511.28 869.388 2511.58 871.288 2511.83 873.198C2511.81 873.218 2511.83 873.248 2511.83 873.288C2511.92 874.008 2512.02 874.748 2512.08 875.468C2512.2 876.368 2512.29 877.268 2512.36 878.178C2512.45 879.168 2512.55 880.188 2512.59 881.188C2512.61 881.488 2512.64 881.808 2512.66 882.118C2512.73 883.278 2512.78 884.428 2512.8 885.588C2512.85 886.888 2512.87 888.178 2512.87 889.478Z" fill="url(#paint29_linear_34_287)"/>
<path d="M2300.23 972.259C2300.57 904.319 2302.75 854.859 2304.86 848.909C2305.31 847.649 2306.12 846.019 2307.16 843.209C2318.53 812.509 2309.83 792.519 2319.71 785.859C2324.1 782.899 2329.66 784.239 2334.29 785.349C2356.58 790.699 2371.15 822.009 2366.19 845.819C2365.42 849.529 2364.31 852.389 2363.66 853.929C2365.2 853.989 2366.4 854.019 2367.59 854.079C2377.58 854.559 2387.64 854.409 2397.53 855.649C2417.31 858.119 2432 875.299 2431.75 895.239C2431.62 905.919 2431.69 916.729 2430.08 927.229C2427.5 944.029 2416.81 955.649 2402.77 964.329C2394.62 969.369 2385.95 972.719 2376.75 974.099C2371.41 974.899 2367.28 974.819 2365.12 974.769C2341.7 974.239 2305.29 972.499 2300.22 972.249L2300.23 972.259Z" fill="white"/>
<path d="M2288.35 851.178C2286.87 891.538 2285.41 931.468 2283.94 971.678C2275.34 971.368 2266.87 971.278 2258.44 970.648C2254.56 970.358 2252.22 966.728 2252.34 962.308C2252.54 954.488 2252.86 946.678 2253.15 938.868C2254.12 912.558 2255.08 886.248 2256.07 859.938C2256.33 852.938 2259.3 850.148 2266.21 850.378C2273.53 850.618 2280.85 850.908 2288.36 851.188L2288.35 851.178Z" fill="white"/>
<g style="mix-blend-mode:multiply" opacity="0.3">
<path d="M2288.9 996.148C2309.66 953.748 2288.67 913.158 2316.79 885.618C2345.77 857.228 2384.07 884.008 2426.13 860.518C2442.63 851.308 2461.13 833.548 2474.99 796.878C2499.29 822.248 2513.87 854.418 2513.87 889.458C2513.87 974.288 2429.9 1039.35 2330.91 1034.99C2308.91 1034.02 2288.09 1029.69 2269.12 1022.67C2278.45 1013.95 2284.65 1004.82 2288.9 996.138V996.148Z" fill="url(#paint30_linear_34_287)"/>
</g>
<path d="M1273.59 1497.1C1273.59 1497.1 1262.75 1440.5 1251.91 1423.64C1241.07 1406.78 1220.85 1395.94 1220.85 1395.94C1220.85 1395.94 1216.63 1402.87 1230.06 1417.47C1243.48 1432.07 1232.29 1433.51 1230.06 1438.21C1227.83 1442.91 1232.64 1459.77 1242.28 1465.79C1251.91 1471.81 1255.53 1504.64 1255.53 1504.64L1273.59 1497.1Z" fill="url(#paint31_linear_34_287)"/>
</g>
<defs>
<linearGradient id="paint0_linear_34_287" x1="706.339" y1="472.02" x2="-377.186" y2="3236.06" gradientUnits="userSpaceOnUse">
<stop stop-color="#FFC444"/>
<stop offset="1" stop-color="#F36F56"/>
</linearGradient>
<linearGradient id="paint1_linear_34_287" x1="750.8" y1="1631.32" x2="1127.48" y2="1631.32" gradientUnits="userSpaceOnUse">
<stop stop-color="#AA80F9"/>
<stop offset="1" stop-color="#6165D7"/>
</linearGradient>
<linearGradient id="paint2_linear_34_287" x1="1097.14" y1="1566.89" x2="1034.44" y2="1646.09" gradientUnits="userSpaceOnUse">
<stop stop-color="#444B8C"/>
<stop offset="1" stop-color="#26264F"/>
</linearGradient>
<linearGradient id="paint3_linear_34_287" x1="767.96" y1="1658.9" x2="1127.1" y2="1658.9" gradientUnits="userSpaceOnUse">
<stop stop-color="#AA80F9"/>
<stop offset="1" stop-color="#6165D7"/>
</linearGradient>
<linearGradient id="paint4_linear_34_287" x1="739.908" y1="1511.73" x2="780.083" y2="1885.09" gradientUnits="userSpaceOnUse">
<stop stop-color="#444B8C"/>
<stop offset="1" stop-color="#26264F"/>
</linearGradient>
<linearGradient id="paint5_linear_34_287" x1="369.18" y1="1837.68" x2="458.09" y2="1837.68" gradientUnits="userSpaceOnUse">
<stop stop-color="#444B8C"/>
<stop offset="1" stop-color="#26264F"/>
</linearGradient>
<linearGradient id="paint6_linear_34_287" x1="1630.09" y1="1281.21" x2="1221.02" y2="1518.67" gradientUnits="userSpaceOnUse">
<stop stop-color="#FCB148"/>
<stop offset="0.05" stop-color="#FDB946"/>
<stop offset="0.14" stop-color="#FEC144"/>
<stop offset="0.32" stop-color="#FFC444"/>
<stop offset="0.48" stop-color="#FDB946"/>
<stop offset="0.78" stop-color="#F99C4C"/>
<stop offset="0.87" stop-color="#F8924F"/>
<stop offset="1" stop-color="#F8924F"/>
</linearGradient>
<linearGradient id="paint7_linear_34_287" x1="1633.46" y1="1307.79" x2="1248.13" y2="1531.47" gradientUnits="userSpaceOnUse">
<stop stop-color="#FCB148"/>
<stop offset="0.05" stop-color="#FDB946"/>
<stop offset="0.14" stop-color="#FEC144"/>
<stop offset="0.32" stop-color="#FFC444"/>
<stop offset="0.48" stop-color="#FDB946"/>
<stop offset="0.78" stop-color="#F99C4C"/>
<stop offset="0.87" stop-color="#F8924F"/>
<stop offset="1" stop-color="#F8924F"/>
</linearGradient>
<linearGradient id="paint8_linear_34_287" x1="1455.75" y1="1345.68" x2="1490.49" y2="1668.46" gradientUnits="userSpaceOnUse">
<stop stop-color="#444B8C"/>
<stop offset="1" stop-color="#26264F"/>
</linearGradient>
<linearGradient id="paint9_linear_34_287" x1="1202.24" y1="974.08" x2="1481.18" y2="974.08" gradientUnits="userSpaceOnUse">
<stop stop-color="#FFA944"/>
<stop offset="1" stop-color="#F3B456"/>
</linearGradient>
<linearGradient id="paint10_linear_34_287" x1="165.62" y1="872.86" x2="1402.79" y2="872.86" gradientUnits="userSpaceOnUse">
<stop stop-color="#FCB148"/>
<stop offset="0.05" stop-color="#FDB946"/>
<stop offset="0.14" stop-color="#FEC144"/>
<stop offset="0.32" stop-color="#FFC444"/>
<stop offset="0.48" stop-color="#FDB946"/>
<stop offset="0.78" stop-color="#F99C4C"/>
<stop offset="0.87" stop-color="#F8924F"/>
<stop offset="1" stop-color="#F8924F"/>
</linearGradient>
<linearGradient id="paint11_linear_34_287" x1="1224.89" y1="1067.84" x2="416.62" y2="1975.73" gradientUnits="userSpaceOnUse">
<stop stop-color="#FCB148"/>
<stop offset="0.05" stop-color="#FDB946"/>
<stop offset="0.14" stop-color="#FEC144"/>
<stop offset="0.32" stop-color="#FFC444"/>
<stop offset="0.48" stop-color="#FDB946"/>
<stop offset="0.78" stop-color="#F99C4C"/>
<stop offset="0.87" stop-color="#F8924F"/>
<stop offset="1" stop-color="#F8924F"/>
</linearGradient>
<linearGradient id="paint12_linear_34_287" x1="531.66" y1="978.58" x2="1262.51" y2="978.58" gradientUnits="userSpaceOnUse">
<stop stop-color="#444B8C"/>
<stop offset="1" stop-color="#26264F"/>
</linearGradient>
<linearGradient id="paint13_linear_34_287" x1="96.2898" y1="972.71" x2="375.22" y2="972.71" gradientUnits="userSpaceOnUse">
<stop stop-color="#FFC444"/>
<stop offset="1" stop-color="#F36F56"/>
</linearGradient>
<linearGradient id="paint14_linear_34_287" x1="64.4399" y1="972.71" x2="186.41" y2="972.71" gradientUnits="userSpaceOnUse">
<stop stop-color="#FFC444"/>
<stop offset="1" stop-color="#F36F56"/>
</linearGradient>
<linearGradient id="paint15_linear_34_287" x1="274.66" y1="1617.62" x2="957.64" y2="1617.62" gradientUnits="userSpaceOnUse">
<stop stop-color="#FCB148"/>
<stop offset="0.05" stop-color="#FDB946"/>
<stop offset="0.14" stop-color="#FEC144"/>
<stop offset="0.32" stop-color="#FFC444"/>
<stop offset="0.48" stop-color="#FDB946"/>
<stop offset="0.78" stop-color="#F99C4C"/>
<stop offset="0.87" stop-color="#F8924F"/>
<stop offset="1" stop-color="#F8924F"/>
</linearGradient>
<linearGradient id="paint16_linear_34_287" x1="638.98" y1="2509.47" x2="737.78" y2="1745.02" gradientUnits="userSpaceOnUse">
<stop stop-color="#FCB148"/>
<stop offset="0.05" stop-color="#FDB946"/>
<stop offset="0.14" stop-color="#FEC144"/>
<stop offset="0.32" stop-color="#FFC444"/>
<stop offset="0.4" stop-color="#FEC045"/>
<stop offset="0.71" stop-color="#FAA24B"/>
<stop offset="0.87" stop-color="#F8924F"/>
<stop offset="1" stop-color="#F8924F"/>
</linearGradient>
<linearGradient id="paint17_linear_34_287" x1="115.307" y1="1489.2" x2="405.049" y2="1548.41" gradientUnits="userSpaceOnUse">
<stop stop-color="#FCB148"/>
<stop offset="0.05" stop-color="#FDB946"/>
<stop offset="0.14" stop-color="#FEC144"/>
<stop offset="0.32" stop-color="#FFC444"/>
<stop offset="0.48" stop-color="#FDB946"/>
<stop offset="0.78" stop-color="#F99C4C"/>
<stop offset="0.87" stop-color="#F8924F"/>
<stop offset="1" stop-color="#F8924F"/>
</linearGradient>
<linearGradient id="paint18_linear_34_287" x1="372.83" y1="1707.12" x2="486.159" y2="1819.58" gradientUnits="userSpaceOnUse">
<stop stop-color="#444B8C"/>
<stop offset="1" stop-color="#26264F"/>
</linearGradient>
<linearGradient id="paint19_linear_34_287" x1="194.243" y1="1554.26" x2="273.082" y2="1839.32" gradientUnits="userSpaceOnUse">
<stop stop-color="#FCB148"/>
<stop offset="0.05" stop-color="#FDB946"/>
<stop offset="0.14" stop-color="#FEC144"/>
<stop offset="0.32" stop-color="#FFC444"/>
<stop offset="0.48" stop-color="#FDB946"/>
<stop offset="0.78" stop-color="#F99C4C"/>
<stop offset="0.87" stop-color="#F8924F"/>
<stop offset="1" stop-color="#F8924F"/>
</linearGradient>
<linearGradient id="paint20_linear_34_287" x1="114.842" y1="1491.99" x2="149.588" y2="1814.77" gradientUnits="userSpaceOnUse">
<stop stop-color="#444B8C"/>
<stop offset="1" stop-color="#26264F"/>
</linearGradient>
<linearGradient id="paint21_linear_34_287" x1="1721.7" y1="1073.3" x2="1594.94" y2="1147.11" gradientUnits="userSpaceOnUse">
<stop stop-color="#444B8C"/>
<stop offset="1" stop-color="#26264F"/>
</linearGradient>
<linearGradient id="paint22_linear_34_287" x1="1585.83" y1="1136.25" x2="1864.42" y2="1136.25" gradientUnits="userSpaceOnUse">
<stop stop-color="#444B8C"/>
<stop offset="1" stop-color="#26264F"/>
</linearGradient>
<linearGradient id="paint23_linear_34_287" x1="2027.84" y1="191.573" x2="2454.71" y2="191.573" gradientUnits="userSpaceOnUse">
<stop stop-color="#FCB148"/>
<stop offset="0.05" stop-color="#FDB946"/>
<stop offset="0.14" stop-color="#FEC144"/>
<stop offset="0.32" stop-color="#FFC444"/>
<stop offset="0.48" stop-color="#FDB946"/>
<stop offset="0.78" stop-color="#F99C4C"/>
<stop offset="0.87" stop-color="#F8924F"/>
<stop offset="1" stop-color="#F8924F"/>
</linearGradient>
<linearGradient id="paint24_linear_34_287" x1="2073.81" y1="75.2283" x2="2372.55" y2="674.718" gradientUnits="userSpaceOnUse">
<stop stop-color="#FFC444"/>
<stop offset="1" stop-color="#F36F56"/>
</linearGradient>
<linearGradient id="paint25_linear_34_287" x1="1789.72" y1="441.989" x2="2089.73" y2="998.409" gradientUnits="userSpaceOnUse">
<stop stop-color="#FF9085"/>
<stop offset="1" stop-color="#FB6FBB"/>
</linearGradient>
<linearGradient id="paint26_linear_34_287" x1="1467.29" y1="188.329" x2="2182.85" y2="1065.02" gradientUnits="userSpaceOnUse">
<stop stop-color="#FF8080"/>
<stop offset="1" stop-color="#E26565"/>
</linearGradient>
<linearGradient id="paint27_linear_34_287" x1="2031.97" y1="473.759" x2="1737.9" y2="1063.89" gradientUnits="userSpaceOnUse">
<stop stop-color="#FF9085"/>
<stop offset="1" stop-color="#FB6FBB"/>
</linearGradient>
<linearGradient id="paint28_linear_34_287" x1="2272.5" y1="767.158" x2="2513.96" y2="1215" gradientUnits="userSpaceOnUse">
<stop stop-color="#FF9085"/>
<stop offset="1" stop-color="#FB6FBB"/>
</linearGradient>
<linearGradient id="paint29_linear_34_287" x1="2267.61" y1="984.63" x2="2318.1" y2="720.2" gradientUnits="userSpaceOnUse">
<stop stop-color="#5D61E1"/>
<stop offset="1" stop-color="#4246F2"/>
</linearGradient>
<linearGradient id="paint30_linear_34_287" x1="2468.47" y1="792.728" x2="2231.79" y2="1267.7" gradientUnits="userSpaceOnUse">
<stop stop-color="#AA80F9"/>
<stop offset="1" stop-color="#6165D7"/>
</linearGradient>
<linearGradient id="paint31_linear_34_287" x1="1195.99" y1="1331.48" x2="1298.98" y2="1568.53" gradientUnits="userSpaceOnUse">
<stop stop-color="#FFC444"/>
<stop offset="1" stop-color="#F36F56"/>
</linearGradient>
<clipPath id="clip0_34_287">
<rect width="2514" height="1928" fill="white" transform="translate(0.00244141)"/>
</clipPath>
</defs>
</svg>
